<svg width="25" height="25" viewBox="0 0 25 25" fill="none" xmlns="http://www.w3.org/2000/svg">
<path fill-rule="evenodd" clip-rule="evenodd" d="M10 15C10.6904 15 11.25 15.5596 11.25 16.25V23.75C11.25 24.4404 10.6904 25 10 25H1.25C0.559644 25 0 24.4404 0 23.75V16.25C0 15.5596 0.559644 15 1.25 15H10ZM23.75 8.75C24.4404 8.75 25 9.30964 25 10V23.75C25 24.4404 24.4404 25 23.75 25H15C14.3096 25 13.75 24.4404 13.75 23.75V10C13.75 9.30964 14.3096 8.75 15 8.75H23.75ZM10 0C10.6904 0 11.25 0.559644 11.25 1.25V11.25C11.25 11.9404 10.6904 12.5 10 12.5H1.25C0.559644 12.5 0 11.9404 0 11.25V1.25C0 0.559644 0.559644 0 1.25 0H10ZM23.75 0C24.4404 0 25 0.559644 25 1.25V5C25 5.69036 24.4404 6.25 23.75 6.25H15C14.3096 6.25 13.75 5.69036 13.75 5V1.25C13.75 0.559644 14.3096 0 15 0H23.75Z" fill="white"/>
</svg>
