<svg width="548" height="548" viewBox="0 0 548 548" fill="none" xmlns="http://www.w3.org/2000/svg">
<path d="M0 50C0 22.3858 22.3858 0 50 0H498C525.614 0 548 22.3858 548 50V498C548 525.614 525.614 548 498 548H50C22.3858 548 0 525.614 0 498V50Z" fill="black"/>
<path d="M419.785 323.972C417.002 316.398 413.626 309.805 409.661 304.207C405.698 298.603 400.022 293.137 392.622 287.791C385.231 282.447 378.582 278.143 372.687 274.872C366.795 271.597 358.701 267.936 348.41 263.884C338.128 259.833 329.982 256.818 323.985 254.836C317.98 252.856 309.294 250.142 297.933 246.696C287.859 243.596 280.359 241.226 275.424 239.59C270.495 237.952 264.013 235.628 255.974 232.61C247.939 229.598 241.937 226.925 237.97 224.6C234.005 222.276 229.773 219.433 225.271 216.074C220.768 212.714 217.607 209.138 215.784 205.348C213.965 201.557 213.053 197.42 213.053 192.94C213.053 181.226 219.481 171.66 232.342 164.253C245.204 156.846 261.818 153.14 282.182 153.14C291.18 153.14 300.354 154.13 309.672 156.113C318.989 158.097 326.975 160.331 333.62 162.831C340.271 165.332 346.539 168.089 352.435 171.103C358.331 174.119 362.509 176.401 364.976 177.951C367.441 179.503 369.003 180.536 369.639 181.054C372.43 182.776 375.316 183.378 378.318 182.863C381.532 182.691 383.999 181.311 385.717 178.729L411.765 140.993C414.336 137.549 413.805 134.274 410.158 131.171C408.87 130.137 407.269 128.932 405.326 127.553C403.403 126.173 399.221 123.675 392.785 120.055C386.356 116.438 379.551 113.207 372.375 110.363C365.191 107.522 355.864 104.635 344.395 101.707C332.933 98.7746 321.087 96.7948 308.866 95.7619V50.2706C308.866 47.8599 307.904 45.8773 305.98 44.3257C304.052 42.7776 301.586 42 298.58 42H255.171C252.385 42 249.974 42.8175 247.938 44.4551C245.902 46.0928 244.884 48.0301 244.884 50.2706V96.7939C211.23 101.961 183.9 113.506 162.894 131.426C141.89 149.347 131.384 170.193 131.384 193.974C131.384 201.038 132.299 207.758 134.121 214.13C135.941 220.508 138.193 226.237 140.873 231.319C143.551 236.405 147.358 241.401 152.287 246.313C157.216 251.223 161.88 255.445 166.273 258.976C170.668 262.505 176.402 266.168 183.474 269.958C190.549 273.751 196.604 276.812 201.643 279.136C206.682 281.454 213.38 284.133 221.737 287.142C230.096 290.159 236.69 292.439 241.513 293.994C246.337 295.543 252.927 297.699 261.29 300.45C272.863 304.069 281.439 306.87 287.011 308.852C292.588 310.835 299.659 313.591 308.238 317.124C316.809 320.652 323.076 323.884 327.045 326.815C331.01 329.745 334.599 333.363 337.816 337.67C341.034 341.976 342.645 346.543 342.645 351.37C342.645 364.982 336.054 375.491 322.868 382.894C309.687 390.306 294.41 394.01 277.05 394.01C269.127 394.01 261.189 393.325 253.261 391.947C225.396 387.461 199.353 376.692 175.132 359.635L174.489 359.118C172.559 357.228 169.986 356.451 166.774 356.798C163.344 357.142 160.877 358.176 159.378 359.903L126.26 394.792C123.044 398.238 123.261 401.769 126.905 405.388C127.978 406.422 129.853 407.977 132.531 410.041C135.216 412.113 140.2 415.338 147.484 419.741C154.77 424.137 162.702 428.267 171.277 432.149C179.852 436.024 190.728 439.856 203.913 443.648C217.098 447.434 230.76 450.104 244.908 451.654V496.884C244.908 499.128 245.927 501.064 247.962 502.702C249.999 504.342 252.409 505.157 255.195 505.157H298.604C301.609 505.157 304.076 504.383 306.003 502.834C307.929 501.285 308.889 499.302 308.889 496.885V451.655C342.977 447.175 370.681 435.415 392.006 416.374C413.333 397.333 424 374.632 424 348.271C423.989 339.657 422.598 331.558 419.785 323.972Z" fill="#FFD702"/>
</svg>
