<svg width="25" height="25" viewBox="0 0 25 25" fill="none" xmlns="http://www.w3.org/2000/svg">
<path fill-rule="evenodd" clip-rule="evenodd" d="M7.5 12.5C7.5 14.1328 6.45644 15.5219 4.99989 16.0367L5 23.75C5 24.4404 4.44036 25 3.75 25C3.05964 25 2.5 24.4404 2.5 23.75L2.49887 16.0362C1.04297 15.5211 0 14.1324 0 12.5C0 10.8676 1.04297 9.47889 2.49887 8.96378L2.5 1.25C2.5 0.559644 3.05964 0 3.75 0C4.44036 0 5 0.559644 5 1.25L4.99989 8.96334C6.45644 9.47811 7.5 10.8672 7.5 12.5ZM5 12.5C5 11.8096 4.44036 11.25 3.75 11.25C3.05964 11.25 2.5 11.8096 2.5 12.5C2.5 13.1904 3.05964 13.75 3.75 13.75C4.44036 13.75 5 13.1904 5 12.5ZM16.25 21.25C16.25 23.3211 14.5711 25 12.5 25C10.4289 25 8.75 23.3211 8.75 21.25C8.75 19.6176 9.79297 18.2289 11.2489 17.7138L11.25 1.25C11.25 0.559644 11.8096 0 12.5 0C13.1904 0 13.75 0.559644 13.75 1.25L13.7499 17.7133C15.2064 18.2281 16.25 19.6172 16.25 21.25ZM13.75 21.25C13.75 20.5596 13.1904 20 12.5 20C11.8096 20 11.25 20.5596 11.25 21.25C11.25 21.9404 11.8096 22.5 12.5 22.5C13.1904 22.5 13.75 21.9404 13.75 21.25ZM25 3.75C25 5.38975 23.9476 6.78369 22.4813 7.29317C22.4941 7.35998 22.5 7.42931 22.5 7.5V23.75C22.5 24.4404 21.9404 25 21.25 25C20.5596 25 20 24.4404 20 23.75V7.5C20 7.42931 20.0059 7.35998 20.0171 7.29249C18.5524 6.78369 17.5 5.38975 17.5 3.75C17.5 1.67893 19.1789 0 21.25 0C23.3211 0 25 1.67893 25 3.75ZM22.5 3.75C22.5 3.05964 21.9404 2.5 21.25 2.5C20.5596 2.5 20 3.05964 20 3.75C20 4.44036 20.5596 5 21.25 5C21.9404 5 22.5 4.44036 22.5 3.75Z" fill="white"/>
</svg>
