<svg width="25" height="25" viewBox="0 0 25 25" fill="none" xmlns="http://www.w3.org/2000/svg">
<path fill-rule="evenodd" clip-rule="evenodd" d="M15.0249 12.5002L24.4764 3.04861C25.1745 2.3504 25.1745 1.22185 24.4764 0.523651C23.7782 -0.17455 22.6496 -0.17455 21.9514 0.523651L12.5 9.97527L3.04855 0.523651C2.35036 -0.17455 1.22183 -0.17455 0.523642 0.523651C-0.174547 1.22185 -0.174547 2.3504 0.523642 3.04861L9.97509 12.5002L0.523642 21.9518C-0.174547 22.65 -0.174547 23.7786 0.523642 24.4768C0.871844 24.825 1.32897 25 1.7861 25C2.24322 25 2.70035 24.825 3.04855 24.4768L12.5 15.0252L21.9514 24.4768C22.2996 24.825 22.7568 25 23.2139 25C23.671 25 24.1282 24.825 24.4764 24.4768C25.1745 23.7786 25.1745 22.65 24.4764 21.9518L15.0249 12.5002Z" fill="white"/>
</svg>
