<svg width="30" height="30" viewBox="0 0 30 30" fill="none" xmlns="http://www.w3.org/2000/svg">
<path d="M25.746 13.6348V14.1348H26.246H28.123C28.5443 14.1348 28.9082 14.26 29.1546 14.4387C29.4016 14.6178 29.5 14.8224 29.5 15V28.6348C29.5 28.8124 29.4016 29.017 29.1546 29.1961C28.9082 29.3748 28.5443 29.5 28.123 29.5H1.87701C1.45107 29.5 1.08757 29.3744 0.84291 29.1965C0.598133 29.0184 0.5 28.8141 0.5 28.6348V15C0.5 14.8224 0.598408 14.6178 0.845361 14.4387C1.09176 14.26 1.45573 14.1348 1.87701 14.1348H3.75403H4.25403V13.6348V8.17969C4.25403 6.12025 5.40067 4.2121 7.34197 2.80011C9.28278 1.38847 11.9887 0.5 15 0.5C18.0113 0.5 20.7172 1.38847 22.658 2.80011C24.5993 4.2121 25.746 6.12025 25.746 8.17969V13.6348ZM22.5 14.1348H23V13.6348V8.17969C23 6.47436 22.048 4.97386 20.5969 3.9184C19.1452 2.86255 17.1646 2.22461 15 2.22461C12.8354 2.22461 10.8548 2.86255 9.40313 3.9184C7.95202 4.97386 7 6.47436 7 8.17969V13.6348V14.1348H7.5H22.5Z" fill="#949494" stroke="#969696"/>
</svg>
