<svg width="25" height="25" viewBox="0 0 25 25" fill="none" xmlns="http://www.w3.org/2000/svg">
<path fill-rule="evenodd" clip-rule="evenodd" d="M21.25 0C23.3211 0 25 1.67893 25 3.75V21.25C25 23.3211 23.3211 25 21.25 25H3.75C1.67893 25 0 23.3211 0 21.25V3.75C0 1.67893 1.67893 0 3.75 0H21.25ZM21.25 2.5H3.75C3.05964 2.5 2.5 3.05964 2.5 3.75V21.25C2.5 21.9404 3.05964 22.5 3.75 22.5H21.25C21.9404 22.5 22.5 21.9404 22.5 21.25V3.75C22.5 3.05964 21.9404 2.5 21.25 2.5ZM7.5 15C8.19036 15 8.75 15.5596 8.75 16.25V18.75C8.75 19.4404 8.19036 20 7.5 20C6.80964 20 6.25 19.4404 6.25 18.75V16.25C6.25 15.5596 6.80964 15 7.5 15ZM12.5 5C13.1904 5 13.75 5.55964 13.75 6.25V18.75C13.75 19.4404 13.1904 20 12.5 20C11.8096 20 11.25 19.4404 11.25 18.75V6.25C11.25 5.55964 11.8096 5 12.5 5ZM17.5 10C18.1904 10 18.75 10.5596 18.75 11.25V18.75C18.75 19.4404 18.1904 20 17.5 20C16.8096 20 16.25 19.4404 16.25 18.75V11.25C16.25 10.5596 16.8096 10 17.5 10Z" fill="white"/>
</svg>
