<svg width="25" height="25" viewBox="0 0 25 25" fill="none" xmlns="http://www.w3.org/2000/svg">
<path d="M5.64591 14.5555L5.73132 14.458L19.4697 0.71967C19.7365 0.452877 20.155 0.428953 20.4484 0.648583L20.5413 0.730634L24.2803 4.46967C24.5471 4.73646 24.571 5.155 24.3514 5.44837L24.2694 5.5413L10.5303 19.2803C10.4166 19.3941 10.27 19.4676 10.1128 19.4915L9.98353 19.5H6.25C5.87006 19.5 5.5555 19.2171 5.50664 18.8507L5.5 18.7356V15C5.5 14.8391 5.5517 14.6835 5.64591 14.5555ZM20.3536 2.66421L20 2.31066L19.6464 2.66421L7.14645 15.1642L7 15.3107V15.5178V17.5V18H7.5H9.48223H9.68934L9.83579 17.8536L22.3358 5.35355L22.6893 5L22.3358 4.64645L20.3536 2.66421ZM23.75 23C24.1642 23 24.5 23.3358 24.5 23.75C24.5 24.1642 24.1642 24.5 23.75 24.5H1.25C0.835787 24.5 0.5 24.1642 0.5 23.75C0.5 23.3358 0.835787 23 1.25 23H23.75Z" fill="black" stroke="black"/>
</svg>
